<svg width="33" height="33" viewBox="0 0 33 33" fill="none" xmlns="http://www.w3.org/2000/svg">
<rect x="0.5" y="0.5" width="32" height="32" rx="4" fill="#D2D2D2"/>
<path d="M17.3334 10.6666C17.3334 10.2063 16.9603 9.83325 16.5 9.83325C16.0398 9.83325 15.6667 10.2063 15.6667 10.6666V15.6666H10.6667C10.2065 15.6666 9.83337 16.0397 9.83337 16.4999C9.83337 16.9602 10.2065 17.3333 10.6667 17.3333H15.6667V22.3333C15.6667 22.7935 16.0398 23.1666 16.5 23.1666C16.9603 23.1666 17.3334 22.7935 17.3334 22.3333V17.3333H22.3334C22.7936 17.3333 23.1667 16.9602 23.1667 16.4999C23.1667 16.0397 22.7936 15.6666 22.3334 15.6666H17.3334V10.6666Z" fill="white"/>
</svg>
