<svg width="25" height="25" viewBox="0 0 25 25" fill="none" xmlns="http://www.w3.org/2000/svg">
<path d="M12.5 12.4999V21.4999M12.5 12.4999L9.99996 14.4999M12.5 12.4999L15 14.4999M5.53396 9.61694C4.58817 9.85494 3.76184 10.4301 3.21021 11.2344C2.65859 12.0387 2.41964 13.0167 2.53827 13.9847C2.65689 14.9528 3.12492 15.8442 3.85443 16.4914C4.58393 17.1387 5.52469 17.4974 6.49996 17.4999H7.49996" stroke="#D2D2D2" stroke-width="2" stroke-linecap="round" stroke-linejoin="round"/>
<path d="M16.3299 7.63796C15.9881 6.28453 15.1445 5.1117 13.97 4.35722C12.7956 3.60274 11.3782 3.32305 10.0052 3.57487C8.63215 3.82668 7.40625 4.59115 6.57598 5.7133C5.7457 6.83545 5.37318 8.23133 5.53392 9.61796C5.53392 9.61796 5.68692 10.5 5.99992 11" stroke="#D2D2D2" stroke-width="2" stroke-linecap="round" stroke-linejoin="round"/>
<path d="M17.5 17.5C18.206 17.4995 18.904 17.3495 19.5479 17.0599C20.1917 16.7702 20.767 16.3475 21.2357 15.8195C21.7045 15.2915 22.0561 14.6702 22.2674 13.9965C22.4787 13.3229 22.545 12.6121 22.4618 11.9109C22.3786 11.2098 22.1479 10.5343 21.7848 9.92874C21.4217 9.32321 20.9345 8.80145 20.3552 8.39778C19.776 7.99412 19.1178 7.71772 18.424 7.58676C17.7302 7.4558 17.0166 7.47327 16.33 7.638L15 8" stroke="#D2D2D2" stroke-width="2" stroke-linecap="round" stroke-linejoin="round"/>
</svg>
