<svg width="54" height="54" viewBox="0 0 54 54" fill="none" xmlns="http://www.w3.org/2000/svg">
<rect width="54" height="54" rx="27" fill="white" fill-opacity="0.47"/>
<g clip-path="url(#clip0_309_2373)">
<path d="M44.7869 27.0367C44.7869 25.5054 44.6632 24.388 44.3953 23.2292H26.9774L26.9774 30.1405H37.2013C36.9953 31.858 35.8822 34.4446 33.4086 36.1827L33.3739 36.4141L38.8811 40.697L39.2627 40.7352C42.7668 37.4864 44.7869 32.7064 44.7869 27.0367Z" fill="#4285F4"/>
<path d="M26.9777 45.2462C31.9866 45.2462 36.1915 43.5907 39.263 40.7352L33.4089 36.1827C31.8423 37.2795 29.7398 38.0451 26.9777 38.0451C22.0719 38.0451 17.9081 34.7964 16.4238 30.3062L16.2063 30.3247L10.4798 34.7736L10.4049 34.9826C13.4556 41.0662 19.7219 45.2462 26.9777 45.2462Z" fill="#34A853"/>
<path d="M16.4236 30.3061C16.032 29.1474 15.8053 27.9057 15.8053 26.6228C15.8053 25.3398 16.032 24.0983 16.403 22.9395L16.3926 22.6927L10.5944 18.1724L10.4047 18.2629C9.14736 20.7875 8.4259 23.6224 8.4259 26.6228C8.4259 29.6233 9.14736 32.4581 10.4047 34.9826L16.4236 30.3061Z" fill="#FBBC05"/>
<path d="M26.9777 15.2005C30.4612 15.2005 32.8111 16.711 34.1509 17.9734L39.3866 12.8416C36.1711 9.84116 31.9866 7.99951 26.9777 7.99951C19.7219 7.99951 13.4556 12.1794 10.4049 18.263L16.4032 22.9395C17.9081 18.4493 22.0719 15.2005 26.9777 15.2005Z" fill="#EB4335"/>
</g>
<defs>
<clipPath id="clip0_309_2373">
<rect width="37.2311" height="37.3751" fill="white" transform="translate(8 8)"/>
</clipPath>
</defs>
</svg>
